<?xml version="1.0" standalone="no"?>
<!DOCTYPE svg PUBLIC "-//W3C//DTD SVG 20010904//EN"
 "http://www.w3.org/TR/2001/REC-SVG-20010904/DTD/svg10.dtd">
<svg version="1.0" xmlns="http://www.w3.org/2000/svg"
 width="170.000000pt" height="170.000000pt" viewBox="0 0 170.000000 170.000000"
 preserveAspectRatio="xMidYMid meet">
<metadata>
Created by potrace 1.11, written by Peter Selinger 2001-2013
</metadata>
<g transform="translate(0.000000,170.000000) scale(0.100000,-0.100000)"
fill="#000000" stroke="none">
<path d="M795 1468 c-6 -19 -305 -1235 -305 -1242 0 -3 27 -6 60 -6 l59 0 10
38 c15 54 301 1213 301 1218 0 2 -27 4 -60 4 -40 0 -62 -4 -65 -12z"/>
<path d="M940 863 c-84 -340 -155 -624 -157 -630 -4 -10 12 -13 59 -13 l64 0
152 618 c84 339 152 623 152 630 0 8 -18 12 -59 12 l-59 0 -152 -617z"/>
<path d="M201 1007 l-202 -122 3 -44 3 -44 195 -119 c107 -65 197 -118 201
-118 3 0 17 21 31 47 l26 47 -146 84 c-81 47 -153 90 -160 96 -9 9 22 32 147
104 l159 93 -26 47 c-14 26 -26 48 -27 49 -1 2 -92 -52 -204 -120z"/>
<path d="M1269 1080 l-27 -50 159 -92 c87 -50 156 -95 154 -99 -3 -4 -72 -46
-155 -94 -82 -47 -150 -91 -150 -97 0 -13 42 -88 50 -88 3 0 93 53 200 118
l195 117 3 45 3 45 -197 120 c-109 66 -200 121 -203 122 -3 2 -18 -20 -32 -47z"/>
<path d="M380 917 c-70 -36 -57 -145 19 -162 41 -9 79 10 98 49 22 46 4 92
-43 112 -40 17 -43 17 -74 1z"/>
<path d="M1251 919 c-34 -13 -50 -38 -51 -76 0 -45 9 -62 41 -78 40 -21 63
-19 98 11 75 62 2 180 -88 143z"/>
</g>
</svg>
